inDegrees=yes
name=ik_S54_A12_T01
DataType=double
version=3
OpenSimVersion=4.3-2021-08-27-4bc7ad9
endheader
time	pelvis_tilt	pelvis_list	pelvis_rotation	pelvis_tx	pelvis_ty	pelvis_tz	hip_flexion_r	hip_adduction_r	hip_rotation_r	knee_angle_r	knee_angle_r_beta	ankle_angle_r	subtalar_angle_r	mtp_angle_r	hip_flexion_l	hip_adduction_l	hip_rotation_l	knee_angle_l	knee_angle_l_beta	ankle_angle_l	subtalar_angle_l	mtp_angle_l	lumbar_extension	lumbar_bending	lumbar_rotation	arm_flex_r	arm_add_r	arm_rot_r	elbow_flex_r	pro_sup_r	wrist_flex_r	wrist_dev_r	arm_flex_l	arm_add_l	arm_rot_l	elbow_flex_l	pro_sup_l	wrist_flex_l	wrist_dev_l
4.339999999999995	-0.3815489733963085	-0.9321984049390016	42.25978080307357	0	0.9399999999999999	0	22.50469295617675	-8.031188806879028	-6.929461990246052	25.77564353027558	0.4498698464236836	0	0	0	22.50469295617675	-8.031188806879028	-6.929461990246052	25.77564353027558	0.4498698464236836	0	0	0	0.02192199089691784	0.07227117573845306	10.55830005258475	11.62517680894975	-1.795493702208577	0.3339715907004278	5.784525794105966	141.7762232867996	0	0	14.58402313234417	-24.27981596229505	-16.17906119553487	36.92209639566856	104.8295008756183	0	0
4.359999999999995	-0.4616965547242118	-0.8981294172363301	41.9787372689993	0	0.9399999999999999	0	22.5213695256176	-8.035851947304899	-6.934130483390766	25.79213515471472	0.4501576795691489	0	0	0	22.5213695256176	-8.035851947304899	-6.934130483390766	25.79213515471472	0.4501576795691489	0	0	0	-0.01546212605361257	0.1524293447363089	10.62937103141766	11.72215376439478	-1.785274820434536	-0.06585722150260218	5.715722455249782	141.9764731793087	0	0	15.48501054804242	-25.40533336400386	-15.43405257156334	38.66543365974815	103.2629756007682	0	0
4.379999999999995	-0.5024596839978221	-0.8730997043024838	41.77756384844285	0	0.9399999999999999	0	22.53444604827634	-8.039493162163835	-6.937782826883349	25.80509744554703	0.4503839142227738	0	0	0	22.53444604827634	-8.039493162163835	-6.937782826883349	25.80509744554703	0.4503839142227738	0	0	0	-0.0260073444021699	0.1951817257785634	10.73230400988977	11.73193331785784	-1.856190104415652	0.0519879162917178	5.793667800346003	141.4710618455954	0	0	16.47830098290206	-26.527204353277	-14.52666803275547	40.44186030194808	101.706262202274	0	0
4.399999999999994	-0.5917893981492041	-0.8369524656658961	41.4236733524753	0	0.9399999999999999	0	22.75514129447945	-8.083138516824739	-6.988535792357582	26.07904299886932	0.4551651660994455	0	0	0	22.75514129447945	-8.083138516824739	-6.988535792357582	26.07904299886932	0.4551651660994455	0	0	0	-0.07122738164145134	0.2768984968769854	10.86855449712345	11.83347522512637	-1.848368417854547	-0.4026746739546058	5.845990863102863	141.1272116776288	0	0	18.79664716033915	-28.75174066352201	-12.8023719633103	41.27632489980181	99.1591939590456	0	0
4.419999999999994	-0.7521043613731713	-0.8143434754312293	41.04559750491688	0	0.9399999999999999	0	22.76731633190312	-8.086492155611475	-6.991919804843364	26.09107333883438	0.45537513514197	0	0	0	22.76731633190312	-8.086492155611475	-6.991919804843364	26.09107333883438	0.45537513514197	0	0	0	-0.1753288984298488	0.3992291382650985	10.87694228107585	12.02225834312381	-1.993185531629824	-0.4024077129882715	5.815142126410647	141.0461688968916	0	0	20.05227158635441	-29.91591745631978	-12.19793724109703	42.88725833966991	97.54498285491957	0	0
4.439999999999993	-0.7825764438486369	-0.7807789542690796	40.8275617265036	0	0.9399999999999999	0	22.78021949431857	-8.090041465038484	-6.99550394003888	26.10382562663063	0.4555977045511765	0	0	0	22.78021949431857	-8.090041465038484	-6.99550394003888	26.10382562663063	0.4555977045511765	0	0	0	-0.1766735498930369	0.4449753073815571	10.99165053303656	12.04658112686638	-2.058827357858112	-0.6768312753571871	5.821526585356924	140.9327890827875	0	0	21.3114825201856	-31.14710898649736	-11.26081382952063	44.37865693372073	96.00754804796627	0	0
4.459999999999993	-0.8148306943805468	-0.6951553800693552	40.5700654783013	0	0.9399999999999999	0	22.79100749518115	-8.09300347109769	-6.998497753510999	26.1144946697541	0.4557839144817183	0	0	0	22.79100749518115	-8.09300347109769	-6.998497753510999	26.1144946697541	0.4557839144817183	0	0	0	-0.145752800657109	0.5314415985550756	11.06239672052311	11.95156816500838	-2.140106247051291	-0.8361712178178738	5.819480867351944	140.8421716145867	0	0	22.51338338818936	-32.30381135251936	-10.45710331972056	45.92538725928447	94.45087950815162	0	0
4.479999999999992	-0.869913415485125	-0.6305687281292423	40.31946391609853	0	0.9399999999999999	0	22.80285397851491	-8.096247126095724	-7.00178039018597	26.12622824764096	0.4559887040488832	0	0	0	22.80285397851491	-8.096247126095724	-7.00178039018597	26.12622824764096	0.4559887040488832	0	0	0	-0.1470061752935022	0.6192213844618413	11.10607100753681	11.92865862387007	-2.240116547690621	-0.9480616934646174	5.776491754258988	140.9774699600929	0	0	22.29733813411634	-32.44573167208176	-10.76469056854017	48.27584842355061	93.7380648189135	0	0
4.499999999999992	-0.9370207632194276	-0.5903745684009934	40.04290237330032	0	0.9399999999999999	0	22.81417491951138	-8.099349693787765	-7.004919673592933	26.13742314350726	0.456184091841168	0	0	0	22.81417491951138	-8.099349693787765	-7.004919673592933	26.13742314350726	0.456184091841168	0	0	0	-0.1722169314312052	0.6938896886669831	11.11219989653629	11.94089797521322	-2.298416221743468	-0.9554407793530456	5.804158970438233	140.8009294123359	0	0	23.57512784285485	-33.42697648589752	-10.10403741835238	47.37922767282287	92.7438711584233	0	0
4.519999999999992	-0.9929734589954076	-0.5479830568293871	39.70930943226829	0	0.9399999999999999	0	23.09771255442738	-8.153503810885109	-7.06900195396344	26.49081216383971	0.4623518937863665	0	0	0	23.09771255442738	-8.153503810885109	-7.06900195396344	26.49081216383971	0.4623518937863665	0	0	0	-0.2021642358244989	0.7716132506064218	11.19611961541459	11.9675824345945	-2.381210625614669	-0.9855241949239451	5.823369302542757	140.5862009253377	0	0	26.67020896688683	-35.88899612180916	-8.286991997328618	49.9876723119762	89.15734918871766	0	0
4.539999999999991	-1.037425146933528	-0.4764205477965459	39.45300493125431	0	0.9399999999999999	0	23.11325592499478	-8.157702378210589	-7.073283210783815	26.50613113014842	0.4626192601864555	0	0	0	23.11325592499478	-8.157702378210589	-7.073283210783815	26.50613113014842	0.4626192601864555	0	0	0	-0.1923382062724487	0.8582483303815293	11.22517175545074	11.94905340442157	-2.494695039128751	-1.071589350756742	5.780424174007136	140.514502531303	0	0	26.41448974110492	-36.06823272691592	-8.656575783958955	52.23836227860451	88.24659972995948	0	0
4.559999999999991	-1.059320693452078	-0.4321045951476055	39.24537960481148	0	0.9399999999999999	0	23.1257503384513	-8.161071146676221	-7.076721590016281	26.51845120460578	0.4628342860498273	0	0	0	23.1257503384513	-8.161071146676221	-7.076721590016281	26.51845120460578	0.4628342860498273	0	0	0	-0.1760893045194049	0.8981046765514774	11.33791480114465	11.92254175204463	-2.581259491915998	-1.317328201633209	5.75291968918845	140.413298803822	0	0	28.16129266350975	-37.25855776156205	-7.612319818117833	53.27236824313385	86.51480585502819	0	0
4.57999999999999	-1.16239092321	-0.3439336810076162	38.85807078142661	0	0.9399999999999999	0	23.13805511914822	-8.164386768494584	-7.080107194531016	26.53057919832651	0.4630459594719152	0	0	0	23.13805511914822	-8.164386768494584	-7.080107194531016	26.53057919832651	0.4630459594719152	0	0	0	-0.1997599672816417	1.029377099230813	11.32275422277227	11.93379331505072	-2.758391946267194	-1.216075641579065	5.748990604778587	140.3158406356329	0	0	29.75216387018524	-38.36721809683775	-7.034579580808117	54.22276523127666	84.80590796850078	0	0
4.59999999999999	-1.163586028031547	-0.338890418118841	38.70919771320982	0	0.9399999999999999	0	23.15049272097411	-8.167730850533736	-7.083525456710778	26.54284965770421	0.4632601193887883	0	0	0	23.15049272097411	-8.167730850533736	-7.083525456710778	26.54284965770421	0.4632601193887883	0	0	0	-0.1931797875990901	1.027916289894383	11.46752943902956	11.92262394994832	-2.766895074702409	-1.530247665046889	5.750140452943434	140.189044183509	0	0	31.82709206158889	-39.49992227240103	-5.787275235705224	55.04143746530226	83.06729371378586	0	0
4.619999999999989	-1.238107432509524	-0.268256295703016	38.33783359500958	0	0.9399999999999999	0	23.16473934859172	-8.171561938621258	-7.087442122119268	26.55688840348156	0.4635051417254535	0	0	0	23.16473934859172	-8.171561938621258	-7.087442122119268	26.55688840348156	0.4635051417254535	0	0	0	-0.2049682240286988	1.12450467619195	11.44703872711912	11.9332988826305	-2.872264294104811	-1.361190167315616	5.747616923752602	140.0452232185642	0	0	33.60882026658029	-40.62361174928714	-5.086699367147187	55.73372685532408	81.33285536752304	0	0
4.639999999999989	-1.248099915930867	-0.2407440374028783	38.12088344743733	0	0.9399999999999999	0	23.17764263432196	-8.175025285413556	-7.090986198209009	26.56961071615347	0.4637271879700466	0	0	0	23.17764263432196	-8.175025285413556	-7.090986198209009	26.56961071615347	0.4637271879700466	0	0	0	-0.1926086085400094	1.144862789356256	11.56076969458505	11.95073038274423	-2.886327614048946	-1.762751527622076	5.663908280673917	140.3694299308828	0	0	35.72428963059122	-41.65332825359722	-3.915027374859609	56.3540866039957	79.61469634751576	0	0
4.659999999999989	-1.283362057883375	-0.1659034440408967	37.84407574694463	0	0.9399999999999999	0	23.19212903784232	-8.17890954346208	-7.094963435100142	26.58389221087796	0.4639764470750952	0	0	0	23.19212903784232	-8.17890954346208	-7.094963435100142	26.58389221087796	0.4639764470750952	0	0	0	-0.1716134886819487	1.22149483039416	11.57709284782195	11.88114010308529	-2.963080604556199	-1.489160515165068	5.701857486977114	139.9422042506548	0	0	37.77487983901848	-42.63518714944727	-2.837989919360668	56.79834599033021	77.87240840968954	0	0
4.679999999999988	-1.317192178449768	-0.1533907674848352	37.60971590255807	0	0.9399999999999999	0	23.44301974277753	-8.226108693428078	-7.151254937518869	26.89498261925877	0.469405998972714	0	0	0	23.44301974277753	-8.226108693428078	-7.151254937518869	26.89498261925877	0.469405998972714	0	0	0	-0.2031630104469051	1.237784818911124	11.6998466053003	11.96754299813345	-3.012530266219184	-1.600737780702478	5.759960853518933	139.4542647214186	0	0	42.82278378704092	-44.20461693340853	0.3327957026049209	55.66118629545876	75.45542185921322	0	0
4.699999999999988	-1.366172218438304	-0.1387297424080322	37.41775404964808	0	0.9399999999999999	0	23.45338532739852	-8.228843148587236	-7.154078137841359	26.90519753186243	0.4695842828304514	0	0	0	23.45338532739852	-8.228843148587236	-7.154078137841359	26.90519753186243	0.4695842828304514	0	0	0	-0.2341868643351074	1.280575004932361	11.71900728986066	12.03850793028083	-3.062028010513952	-1.693496963002186	5.737519981539253	139.5886187184966	0	0	42.78005407194785	-44.44611405562451	0.007855292020351397	57.24347417554655	74.82951346913906	0	0
4.719999999999987	-1.384596331732334	-0.08842229431493472	37.12283486389581	0	0.9399999999999999	0	23.68593534480732	-8.272466439410945	-7.206183745730861	27.191717022491	0.474584991313057	0	0	0	23.68593534480732	-8.272466439410945	-7.206183745730861	27.191717022491	0.474584991313057	0	0	0	-0.2338162345924965	1.336991048220015	11.80888506205085	12.04454417130899	-3.104050495649987	-1.714948311511231	5.758771171204361	139.3596031266983	0	0	47.91137315707341	-45.74727701961542	3.412508537442842	55.91948437375365	72.43380768996433	0	0
